<?xml version="1.0" encoding="UTF-8" standalone="no"?>
<!-- Uploaded to: SVG Repo, www.svgrepo.com, Generator: SVG Repo Mixer Tools -->

<svg
   fill="#000000"
   height="800px"
   width="800px"
   version="1.1"
   viewBox="0 0 297 297"
   enable-background="new 0 0 297 297"
   id="svg2"
   sodipodi:docname="logo3coeur.svg"
   inkscape:version="1.3.2 (091e20e, 2023-11-25, custom)"
   xmlns:inkscape="http://www.inkscape.org/namespaces/inkscape"
   xmlns:sodipodi="http://sodipodi.sourceforge.net/DTD/sodipodi-0.dtd"
   xmlns="http://www.w3.org/2000/svg"
   xmlns:svg="http://www.w3.org/2000/svg">
  <defs
     id="defs2" />
  <sodipodi:namedview
     id="namedview2"
     pagecolor="#ffffff"
     bordercolor="#000000"
     borderopacity="0.25"
     inkscape:showpageshadow="2"
     inkscape:pageopacity="0.0"
     inkscape:pagecheckerboard="0"
     inkscape:deskcolor="#d1d1d1"
     inkscape:zoom="0.71859727"
     inkscape:cx="51.489202"
     inkscape:cy="288.75701"
     inkscape:window-width="1920"
     inkscape:window-height="1009"
     inkscape:window-x="1912"
     inkscape:window-y="-8"
     inkscape:window-maximized="1"
     inkscape:current-layer="g2" />
  <g
     id="g2">
    <path
       d="m217.412,157.164c-8.192-10.477-20.802-17.199-34.922-17.199-24.63,0-44.668,20.461-44.668,45.611 0,17.755 12.837,38.291 38.154,61.039 17.841,16.03 35.43,27.372 36.17,27.848 1.605,1.029 3.435,1.544 5.266,1.544 1.831,0 3.662-0.515 5.266-1.544 0.741-0.476 18.328-11.817 36.17-27.849 25.315-22.748 38.152-43.284 38.152-61.038 0-25.15-20.037-45.611-44.667-45.611-14.119,0-26.729,6.723-34.921,17.199z"
       id="path1" />
    <path
       id="path2"
       d="M 73.363206 20.992302 C 32.910246 20.993302 0 54.682158 0 96.092117 C 0 126.07309 22.490698 161.48786 66.849653 201.35382 C 98.875621 230.13779 130.39017 250.46322 131.71616 251.31522 C 133.32116 252.34522 135.15328 252.85968 136.98327 252.85968 C 138.81427 252.85968 140.64611 252.34522 142.25111 251.31522 C 142.65411 251.05622 145.86382 248.98423 151.01681 245.43323 C 143.80682 237.77324 137.89198 230.26985 133.35198 223.00886 C 125.32199 210.15987 121.24865 197.56668 121.24865 185.57569 C 121.24865 151.28773 148.72171 123.39132 182.48968 123.39132 C 195.18267 123.39132 207.28484 127.31279 217.41183 134.47879 C 227.53782 127.31279 239.63927 123.39132 252.33326 123.39132 C 257.58625 123.39132 262.68506 124.06831 267.55306 125.33531 C 271.81205 115.09132 273.9622 105.32966 273.9622 96.090667 C 273.9622 54.680708 241.05095 20.992302 200.59899 20.992302 C 173.42902 20.992302 149.66326 36.186355 136.98327 58.713333 C 124.30329 36.187355 100.53518 20.992302 73.363206 20.992302 z M 54.588252 56.078328 C 61.150075 56.078328 67.010412 59.201492 70.817388 64.070354 C 74.624374 59.201956 80.484445 56.078328 87.045798 56.078328 C 98.491837 56.078328 107.80317 65.586706 107.80317 77.274382 C 107.80317 85.525005 101.83744 95.068785 90.073081 105.6402 C 81.781559 113.09058 73.608942 118.36126 73.264592 118.58247 C 72.519183 119.06066 71.668297 119.29959 70.817388 119.29959 C 69.966489 119.29959 69.116052 119.06066 68.370183 118.58247 C 68.026283 118.36126 59.852021 113.08965 51.560969 105.6402 C 39.795681 95.068776 33.830156 85.52547 33.830156 77.274382 C 33.830156 65.586706 43.142223 56.078328 54.588252 56.078328 z " />
  </g>
</svg>
